<?xml version="1.0" encoding="UTF-8"?>
<svg version="1.1" xmlns="http://www.w3.org/2000/svg" width="1749" height="402">
<path d="M0 0 C577.17 0 1154.34 0 1749 0 C1749 132.66 1749 265.32 1749 402 C1171.83 402 594.66 402 0 402 C0 269.34 0 136.68 0 0 Z " fill="#FEFEFE" transform="translate(0,0)"/>
<path d="M0 0 C0.63550781 0.56203125 1.27101563 1.1240625 1.92578125 1.703125 C3.01826172 2.63898438 3.01826172 2.63898438 4.1328125 3.59375 C17.17662088 15.59316487 24.10061742 33.33383393 25.10718155 50.86200523 C25.17000422 54.35770498 25.1733911 57.84827528 25.15283203 61.34448242 C25.15312408 62.66282074 25.15341614 63.98115906 25.15371704 65.33944702 C25.15428587 68.91931602 25.14260859 72.49904829 25.12856913 76.07888579 C25.11598256 79.8331263 25.11488507 83.58737068 25.11251831 87.34162903 C25.10632666 94.43511085 25.08994751 101.5285303 25.06981933 108.62198478 C25.04738785 116.7043022 25.03644875 124.78662275 25.02642846 132.8689636 C25.00557896 149.4803929 24.96893202 166.09173638 24.92578125 182.703125 C9.41578125 182.703125 -6.09421875 182.703125 -22.07421875 182.703125 C-22.08356445 179.14128418 -22.09291016 175.57944336 -22.10253906 171.90966797 C-22.13640075 160.10311575 -22.19180254 148.29673042 -22.25812149 136.49032402 C-22.29778604 129.33648215 -22.33024194 122.18274828 -22.34521484 115.02880859 C-22.35829715 108.78718741 -22.38542729 102.54580511 -22.42883182 96.30431855 C-22.45130058 93.00507551 -22.4650413 89.70618556 -22.4661026 86.40685654 C-22.27886962 59.86978521 -22.27886962 59.86978521 -35.76171875 37.953125 C-45.81226344 30.42797098 -59.03132561 29.99408301 -71.07421875 31.703125 C-80.33508258 34.06786429 -87.8182946 39.81923877 -93.07421875 47.703125 C-98.45507194 57.07099591 -99.37145798 66.84507533 -99.39306641 77.46508789 C-99.40311203 78.60756989 -99.41315765 79.75005188 -99.42350769 80.92715454 C-99.45422289 84.67669199 -99.47134252 88.42615842 -99.48828125 92.17578125 C-99.50700225 94.7860932 -99.52657636 97.39639916 -99.54696655 100.00669861 C-99.59358726 106.15811819 -99.63041169 112.30955507 -99.66363943 118.46105999 C-99.70197957 125.46965572 -99.75135819 132.47816043 -99.80162358 139.4866792 C-99.90469463 153.89209582 -99.99257831 168.29757051 -100.07421875 182.703125 C-115.58421875 182.703125 -131.09421875 182.703125 -147.07421875 182.703125 C-147.08880127 179.16110352 -147.10338379 175.61908203 -147.1184082 171.96972656 C-147.16884848 160.23901702 -147.23531236 148.50842802 -147.30993366 136.7778511 C-147.35476816 129.66881042 -147.39421072 122.55981845 -147.4206543 115.45068359 C-147.443735 109.24939873 -147.47724384 103.04826965 -147.52292031 96.8471086 C-147.54671801 93.56810547 -147.56397788 90.28928602 -147.57183266 87.0102005 C-147.58152007 83.33632291 -147.60963597 79.66299784 -147.6418457 75.98925781 C-147.64041061 74.91966324 -147.63897552 73.85006866 -147.63749695 72.74806213 C-147.78534776 60.74631684 -150.24531637 49.23527478 -158.515625 40.11328125 C-168.46386655 31.19510286 -179.98854271 30.92223109 -192.65136719 31.48974609 C-202.60350565 32.36622423 -210.75685643 38.25043599 -217.07421875 45.703125 C-223.7794784 56.15053164 -225.36804537 66.18437247 -225.39306641 78.37329102 C-225.40813484 80.07238365 -225.40813484 80.07238365 -225.42350769 81.80580139 C-225.45421988 85.52287319 -225.47134167 89.23987336 -225.48828125 92.95703125 C-225.5070025 95.54492301 -225.52657662 98.13280872 -225.54696655 100.72068787 C-225.59296618 106.81899176 -225.63041043 112.91729234 -225.66363943 119.01567739 C-225.70198126 125.96381525 -225.75135943 132.91186133 -225.80162358 139.85992157 C-225.90469112 154.14092594 -225.99257619 168.42198245 -226.07421875 182.703125 C-241.91421875 182.703125 -257.75421875 182.703125 -274.07421875 182.703125 C-274.07421875 120.003125 -274.07421875 57.303125 -274.07421875 -7.296875 C-259.22421875 -7.296875 -244.37421875 -7.296875 -229.07421875 -7.296875 C-229.07421875 0.953125 -229.07421875 9.203125 -229.07421875 17.703125 C-228.41421875 17.703125 -227.75421875 17.703125 -227.07421875 17.703125 C-226.79578125 16.713125 -226.79578125 16.713125 -226.51171875 15.703125 C-220.59324682 3.3515314 -206.44501844 -4.67542542 -194.07421875 -9.296875 C-185.71126706 -11.93032797 -177.87778994 -12.78384045 -169.13671875 -12.671875 C-167.99444824 -12.66244873 -166.85217773 -12.65302246 -165.67529297 -12.64331055 C-157.7518823 -12.50123482 -150.59034338 -11.97355756 -143.07421875 -9.296875 C-142.04554688 -8.93335938 -141.016875 -8.56984375 -139.95703125 -8.1953125 C-127.89996143 -3.5348491 -116.27777982 3.97878474 -110.07421875 15.703125 C-110.07421875 16.363125 -110.07421875 17.023125 -110.07421875 17.703125 C-107.18738868 14.90377463 -104.55419586 12.06890577 -102.01171875 8.953125 C-78.64540576 -17.6794468 -27.82659072 -22.81434767 0 0 Z " fill="#363636" transform="translate(924.07421875,148.296875)"/>
<path d="M0 0 C1.11761719 0.39574219 2.23523438 0.79148438 3.38671875 1.19921875 C28.11894982 10.73110294 46.45603077 29.07803239 57.17919922 53.05566406 C62.582822 65.85591744 64.37386204 78.88290682 64.37060547 92.67773438 C64.37496591 94.73392504 64.41138474 96.78793811 64.44921875 98.84375 C64.53122831 108.51264152 62.94226357 116.77925452 60 126 C59.75378906 126.80276367 59.50757813 127.60552734 59.25390625 128.43261719 C51.50506435 152.6831849 35.38563253 171.98871383 12.93359375 184.109375 C5.97593326 187.62309195 -1.54981976 189.78944713 -9 192 C-10.14597656 192.36351562 -11.29195313 192.72703125 -12.47265625 193.1015625 C-39.01850028 199.86296242 -68.32190761 194.99899168 -91.9296875 181.88671875 C-96.64751388 178.98759643 -100.81347433 175.60907385 -105 172 C-106.02867187 171.18789063 -106.02867187 171.18789063 -107.078125 170.359375 C-122.54259979 157.81732064 -132.96182573 136.69159595 -136.25 117.3125 C-136.41765869 116.32644775 -136.58531738 115.34039551 -136.75805664 114.32446289 C-139.17318989 98.82316283 -139.39472579 83.14373042 -135 68 C-134.73316406 66.95328125 -134.46632812 65.9065625 -134.19140625 64.828125 C-129.98780485 49.50833324 -122.31403599 36.9236507 -112 25 C-111.41734375 24.31550781 -110.8346875 23.63101563 -110.234375 22.92578125 C-83.99839679 -5.49652848 -35.34799235 -13.20806103 0 0 Z " fill="#373737" transform="translate(373,141)"/>
<path d="M0 0 C9.24 0 18.48 0 28 0 C28 81.84 28 163.68 28 248 C19.42 248 10.84 248 2 248 C1.67 238.76 1.34 229.52 1 220 C-1.64 223.63 -4.28 227.26 -7 231 C-17.49662833 242.73152578 -29.13343509 247.98241616 -44 252 C-44.6607251 252.18763916 -45.3214502 252.37527832 -46.00219727 252.56860352 C-62.52507786 257.06175524 -81.89937486 253.48614561 -97 246 C-98.36511719 245.35417969 -98.36511719 245.35417969 -99.7578125 244.6953125 C-119.25606791 234.86285892 -132.11982778 217.56217963 -139.375 197.3125 C-139.73295654 196.31657837 -139.73295654 196.31657837 -140.09814453 195.30053711 C-143.81748977 184.28638061 -144.47832939 173.21721999 -144.5 161.6875 C-144.50302124 160.56640839 -144.50302124 160.56640839 -144.50610352 159.42266846 C-144.46523732 136.8999846 -138.59212875 114.01804907 -123 97 C-122.17628906 96.09636719 -121.35257813 95.19273437 -120.50390625 94.26171875 C-114.56213623 88.03339528 -108.54608302 83.13677357 -101 79 C-100.19691406 78.53980469 -99.39382813 78.07960938 -98.56640625 77.60546875 C-79.47162929 67.74529531 -56.17003677 67.97711452 -36 74 C-22.5308689 78.86894761 -7.56128451 88.87743098 -1 102 C-0.505 51.51 -0.505 51.51 0 0 Z " fill="#8AA3A1" transform="translate(1570,77)"/>
<path d="M0 0 C0.969375 0.43054688 1.93875 0.86109375 2.9375 1.3046875 C22.95409747 11.13842288 35.20762208 30.85294521 42.77929688 51.08203125 C51.39476864 76.40402651 47.27957304 107.45249119 36.00390625 131.03125 C31.61843231 139.87229949 25.84433775 146.91409739 19 154 C18.01966797 155.03640625 18.01966797 155.03640625 17.01953125 156.09375 C7.44661368 165.4259559 -5.85428435 171.87850122 -19 174 C-20.0415625 174.17789063 -21.083125 174.35578125 -22.15625 174.5390625 C-42.2386385 176.94731641 -61.23616918 175.05353254 -78 163 C-85.35716245 157.11639026 -92.74843915 150.5031217 -97 142 C-97.33 172.36 -97.66 202.72 -98 234 C-106.91 234 -115.82 234 -125 234 C-125 155.79 -125 77.58 -125 -3 C-116.09 -3 -107.18 -3 -98 -3 C-97.67 5.58 -97.34 14.16 -97 23 C-95.02 20.36 -93.04 17.72 -91 15 C-67.99915496 -11.63054649 -30.53246905 -13.86013398 0 0 Z " fill="#8AA4A1" transform="translate(1358,155)"/>
<path d="M0 0 C15.85557392 12.56010169 22.02910236 33.25993452 24.6796875 52.453125 C25.43623129 62.0288453 25.28610968 71.64010209 25.18665719 81.23789668 C25.15479759 84.84788252 25.15241715 88.45790368 25.14653015 92.06800842 C25.13116271 98.86376543 25.09037375 105.65910667 25.0397827 112.45468289 C24.98334696 120.20833471 24.95626836 127.96200938 24.93130553 135.71581638 C24.87943612 151.62853239 24.78796717 167.54067763 24.6796875 183.453125 C8.8396875 183.453125 -7.0003125 183.453125 -23.3203125 183.453125 C-23.34218628 178.04135864 -23.34218628 178.04135864 -23.36450195 172.52026367 C-23.41491879 160.57799795 -23.48137812 148.63587157 -23.55602741 136.69373608 C-23.60088228 129.45575103 -23.64032031 122.21781405 -23.66674805 114.97973633 C-23.68981207 108.6667611 -23.7233028 102.35393933 -23.76901406 96.04108602 C-23.79283412 92.70228108 -23.81007976 89.36376577 -23.81792641 86.02486229 C-23.82759916 82.28612297 -23.85569803 78.54792988 -23.88793945 74.80932617 C-23.88650436 73.71743484 -23.88506927 72.62554352 -23.8835907 71.50056458 C-24.0202796 60.23641105 -26.41418728 49.11069919 -34.0703125 40.48046875 C-43.49322269 31.53250363 -54.88756479 30.04851617 -67.4375 30.18359375 C-78.92250471 30.98084257 -88.84497262 36.19413982 -96.421875 44.85546875 C-107.00500288 59.82946884 -105.92368307 78.26542033 -105.9296875 95.734375 C-105.9446947 98.24500583 -105.96142711 100.75562688 -105.97979736 103.26623535 C-106.02319755 109.8222503 -106.04340911 116.37813213 -106.05853271 122.93426514 C-106.07606702 129.6450565 -106.12016143 136.35571933 -106.16015625 143.06640625 C-106.23516212 156.1952925 -106.28356839 169.32407587 -106.3203125 182.453125 C-121.8303125 182.453125 -137.3403125 182.453125 -153.3203125 182.453125 C-153.3203125 119.423125 -153.3203125 56.393125 -153.3203125 -8.546875 C-138.1403125 -8.546875 -122.9603125 -8.546875 -107.3203125 -8.546875 C-107.3203125 -0.626875 -107.3203125 7.293125 -107.3203125 15.453125 C-106.6603125 15.453125 -106.0003125 15.453125 -105.3203125 15.453125 C-104.94326172 14.34904297 -104.94326172 14.34904297 -104.55859375 13.22265625 C-99.75316455 2.47486665 -86.6992362 -4.37987523 -76.3828125 -8.859375 C-50.89188724 -18.00683622 -22.60511915 -15.07007944 0 0 Z " fill="#373737" transform="translate(182.3203125,148.546875)"/>
<path d="M0 0 C15.51 0 31.02 0 47 0 C47 15.51 47 31.02 47 47 C60.86 47 74.72 47 89 47 C89 60.2 89 73.4 89 87 C75.14 87 61.28 87 47 87 C47.09079245 104.06946303 47.09079245 104.06946303 47.20898438 121.13867188 C47.26328132 128.10211131 47.31439265 135.0654707 47.34643555 142.02905273 C47.37247499 147.6442487 47.41288248 153.25917545 47.46318626 158.87420464 C47.47985053 161.01473068 47.49136754 163.15530329 47.49761391 165.29588509 C47.50725955 168.29788453 47.53532519 171.2991959 47.56762695 174.30102539 C47.56619186 175.1828801 47.56475677 176.0647348 47.5632782 176.97331238 C47.64593239 182.41713624 48.56760393 186.12495706 51 191 C51.309375 191.928125 51.61875 192.85625 51.9375 193.8125 C53.26002506 196.53534572 54.2007561 196.96028084 57 198 C58.051875 198.556875 58.051875 198.556875 59.125 199.125 C67.97856579 201.8195635 75.63490144 199.1311981 84 196 C85.98 195.34 87.96 194.68 90 194 C90 207.53 90 221.06 90 235 C71.97966567 242.50847264 51.76895566 247.32738212 32.6796875 240.1875 C31.35324219 239.5996875 31.35324219 239.5996875 30 239 C29.19820312 238.649375 28.39640625 238.29875 27.5703125 237.9375 C16.3535632 232.34853149 7.54221297 222.9859151 3.3359375 211.12792969 C0.02756025 200.68455531 -1.15544148 190.53014669 -1.11352539 179.63671875 C-1.11367142 178.63093277 -1.11381744 177.62514679 -1.1139679 176.58888245 C-1.11327526 173.28839914 -1.10551341 169.98797336 -1.09765625 166.6875 C-1.09578976 164.38964875 -1.09436695 162.0917971 -1.09336853 159.79394531 C-1.08956153 153.76388438 -1.07974682 147.73384776 -1.06866455 141.70379639 C-1.0584113 135.54341969 -1.05386254 129.38303903 -1.04882812 123.22265625 C-1.03812286 111.14842513 -1.02054083 99.0742184 -1 87 C-9.91 87 -18.82 87 -28 87 C-28 73.8 -28 60.6 -28 47 C-18.76 47 -9.52 47 0 47 C0 31.49 0 15.98 0 0 Z " fill="#363636" transform="translate(1093,93)"/>
<path d="M0 0 C15.12273448 10.84175939 23.46161813 26.15172864 26.7890625 44.3515625 C29.98976305 66.94163083 25.3083957 88.04829814 12.01953125 106.671875 C4.27824895 115.8493228 -6.93720244 122.19974316 -18.66796875 124.671875 C-37.59582368 125.98946452 -54.11046872 125.06296662 -69.2265625 112.5546875 C-82.73485948 100.01273748 -90.1915841 82.13746061 -90.890625 63.8359375 C-91.21945396 49.8118962 -90.37831043 36.2991058 -83.66796875 23.671875 C-83.22453125 22.77855469 -82.78109375 21.88523438 -82.32421875 20.96484375 C-75.85102639 8.37999372 -66.11053676 -1.2450034 -52.66796875 -6.328125 C-35.45810966 -11.63082908 -15.13744947 -9.87969238 0 0 Z " fill="#FDFEFE" transform="translate(1349.66796875,180.328125)"/>
<path d="M0 0 C15.51 0 31.02 0 47 0 C47 89.1 47 178.2 47 270 C31.49 270 15.98 270 0 270 C0 180.9 0 91.8 0 0 Z " fill="#363636" transform="translate(469,61)"/>
<path d="M0 0 C14.53912876 10.46611042 22.71431341 25.60378266 25.88232422 43.16064453 C28.71621453 64.58520036 25.7174877 85.7442799 13.265625 103.6484375 C5.09649704 114.05824055 -6.59332065 122.39277156 -19.984375 124.375 C-39.2192986 125.81761927 -55.69485725 123.26537496 -71.046875 110.5234375 C-83.84570822 98.24488206 -90.58511246 81.83067447 -91 64.19921875 C-91.02114983 61.76566674 -91.03661196 59.33205977 -91.046875 56.8984375 C-91.0675 55.69509766 -91.088125 54.49175781 -91.109375 53.25195312 C-91.15715966 42.19577854 -89.25887128 32.31516144 -84.171875 22.4609375 C-83.82632568 21.78426025 -83.48077637 21.10758301 -83.12475586 20.41040039 C-76.12422433 7.25793414 -64.75976267 -2.34182984 -50.796875 -7.4140625 C-33.33736032 -12.58995203 -15.25034991 -9.94807594 0 0 Z " fill="#FDFEFE" transform="translate(1544.796875,181.4140625)"/>
<path d="M0 0 C1.30324219 -0.01836914 1.30324219 -0.01836914 2.6328125 -0.03710938 C17.15048692 -0.06980684 28.96510287 5.28264402 39.37890625 15.21875 C51.44237145 27.85448584 54.76320398 42.96164268 54.671875 59.89746094 C54.25229412 76.08997056 48.98593045 91.17017069 37.66796875 103 C24.87058933 114.57759689 9.23564435 117.19196866 -7.41015625 116.40966797 C-19.12777506 115.29708104 -30.14481844 107.61996051 -38.08984375 99.26171875 C-43.59543233 92.38297161 -47.44998237 84.66046818 -49.75 76.1875 C-50.26820313 74.64835937 -50.26820313 74.64835937 -50.796875 73.078125 C-55.38212984 56.89271486 -51.28561274 39.23385744 -43.5625 24.8125 C-36.00416018 12.89357952 -25.38613565 4.68273169 -11.80908203 0.60449219 C-7.9143595 -0.18424223 -3.95988144 0.00288621 0 0 Z " fill="#FDFDFD" transform="translate(334.75,177.8125)"/>
<path d="M0 0 C15.84 0 31.68 0 48 0 C48 63.36 48 126.72 48 192 C32.16 192 16.32 192 0 192 C0 128.64 0 65.28 0 0 Z " fill="#383837" transform="translate(559,139)"/>
<path d="M0 0 C0.77875488 0.00201416 1.55750977 0.00402832 2.35986328 0.00610352 C9.27880703 0.12470992 15.66874526 1.38720771 22.3125 3.3125 C23.6445216 3.65103705 24.97732632 3.98661638 26.3125 4.3125 C26.42289334 12.71465965 26.26708649 20.95986824 25.3125 29.3125 C24.78785156 29.168125 24.26320313 29.02375 23.72265625 28.875 C14.70591911 26.71458378 2.31010889 25.05402165 -6.4375 28.8125 C-10.81409484 31.56631249 -13.64053841 36.09737612 -15.22460938 40.96191406 C-15.87564833 44.26792836 -15.92396614 47.56399955 -16.00390625 50.921875 C-16.02255737 51.56656738 -16.0412085 52.21125977 -16.0604248 52.87548828 C-16.12843827 55.27102681 -16.18876787 57.66677854 -16.25 60.0625 C-16.394375 65.425 -16.53875 70.7875 -16.6875 76.3125 C-3.4875 76.3125 9.7125 76.3125 23.3125 76.3125 C23.3125 84.2325 23.3125 92.1525 23.3125 100.3125 C10.1125 100.3125 -3.0875 100.3125 -16.6875 100.3125 C-16.6875 150.1425 -16.6875 199.9725 -16.6875 251.3125 C-25.5975 251.3125 -34.5075 251.3125 -43.6875 251.3125 C-43.6875 201.4825 -43.6875 151.6525 -43.6875 100.3125 C-51.6075 100.3125 -59.5275 100.3125 -67.6875 100.3125 C-67.6875 92.3925 -67.6875 84.4725 -67.6875 76.3125 C-59.7675 76.3125 -51.8475 76.3125 -43.6875 76.3125 C-43.72230469 73.95996094 -43.75710938 71.60742188 -43.79296875 69.18359375 C-43.81650936 66.85002856 -43.83464276 64.51647768 -43.85229492 62.18286133 C-43.86718159 60.58774688 -43.88749768 58.99267183 -43.91381836 57.39770508 C-44.18723975 40.37588298 -43.07329194 24.1029955 -30.9375 10.9375 C-22.29445319 2.8882503 -11.57473425 -0.08190265 0 0 Z " fill="#89A2A0" transform="translate(1688.6875,74.6875)"/>
<path d="M0 0 C15.51 0 31.02 0 47 0 C47 63.03 47 126.06 47 191 C31.49 191 15.98 191 0 191 C0 127.97 0 64.94 0 0 Z " fill="#343434" transform="translate(991,140)"/>
<path d="M0 0 C7.07173684 4.25049912 11.52253539 10.63559284 14.22265625 18.3359375 C15.29412181 27.1443811 14.11698825 35.19936289 8.6796875 42.37109375 C3.46967483 47.9864621 -3.1285808 51.77430141 -10.8203125 52.5390625 C-19.13751975 52.72085938 -26.21952088 50.5821958 -32.77734375 45.3359375 C-38.93348813 39.42121055 -41.84138148 33.51442826 -42.21484375 24.9609375 C-41.9930418 17.6918828 -39.56520955 10.12786747 -34.49609375 4.71875 C-24.21894952 -3.54967968 -12.07796491 -5.53818879 0 0 Z " fill="#353535" transform="translate(1028.77734375,62.6640625)"/>
<path d="M0 0 C7.19949197 3.87040358 11.50623157 10.40150722 14.078125 18.1171875 C15.101744 26.64247146 13.36741469 33.70051697 9.078125 41.1171875 C7.01048775 43.67736365 4.87621508 45.40314449 2.078125 47.1171875 C1.43230469 47.52710938 0.78648437 47.93703125 0.12109375 48.359375 C-6.5289483 51.9373197 -13.54181544 52.08780758 -20.921875 51.1171875 C-26.94911127 49.16672908 -31.95411316 46.10523096 -35.921875 41.1171875 C-36.61796875 40.24900391 -36.61796875 40.24900391 -37.328125 39.36328125 C-42.18279606 32.25658223 -41.84548611 24.34416796 -40.921875 16.1171875 C-38.66846794 8.03848346 -32.69361243 3.37763308 -25.7890625 -0.8671875 C-17.95530075 -5.12822946 -7.77215974 -3.63536504 0 0 Z " fill="#373737" transform="translate(596.921875,62.8828125)"/>
<path d="M0 0 C10.23 0 20.46 0 31 0 C31 0.33 31 0.66 31 1 C30.15703369 1.02505615 29.31406738 1.0501123 28.44555664 1.07592773 C25.32758326 1.17088155 22.20978497 1.27012448 19.09204102 1.37231445 C17.74085853 1.41571223 16.38961947 1.4573837 15.03833008 1.49731445 C13.09963299 1.55489952 11.16113724 1.61914298 9.22265625 1.68359375 C8.05484619 1.72025146 6.88703613 1.75690918 5.68383789 1.79467773 C3.08220205 1.70076188 3.08220205 1.70076188 2 3 C1.76807135 4.51469448 1.58784762 6.03754562 1.4375 7.5625 C1.35371094 8.38878906 1.26992188 9.21507812 1.18359375 10.06640625 C1.12300781 10.70449219 1.06242188 11.34257812 1 12 C0.67 12 0.34 12 0 12 C0 8.04 0 4.08 0 0 Z " fill="#2C2C2C" transform="translate(650,141)"/>
</svg>
